<svg width="273" height="303" viewBox="0 0 273 303" fill="none" xmlns="http://www.w3.org/2000/svg">
<path d="M60.2872 263.96L48.7707 274.562L57.9231 259.205C50.7124 246.129 38.9192 234.828 38.9192 234.828C38.9192 234.828 14.4525 258.269 14.4525 276.695C14.4525 295.121 25.4066 301.555 38.9192 301.555C52.4316 301.555 63.3857 295.121 63.3857 276.695C63.3857 272.594 62.1718 268.244 60.2872 263.96Z" fill="#070707"/>
<path d="M45.8089 275.137V276.045C45.7549 286.602 43.9744 294.839 40.4808 300.64C40.4313 300.725 40.3773 300.806 40.3279 300.891L39.9367 300.653L39.5635 300.419C43.4393 294.156 44.8107 285.303 44.8601 276.094C44.8647 275.797 44.8691 275.496 44.8647 275.195C44.8511 271.297 44.6129 267.353 44.2307 263.523C44.2037 263.226 44.1722 262.925 44.1408 262.623C43.6102 257.569 42.8458 252.74 42.0635 248.545C42.0095 248.249 41.9511 247.952 41.8926 247.66C40.5392 240.564 39.1588 235.425 38.8441 234.288C38.8081 234.148 38.7856 234.072 38.7811 234.054L39.2083 233.932L39.2128 233.928L39.6444 233.806C39.6489 233.824 39.7254 234.081 39.8513 234.557C40.3324 236.338 41.5824 241.171 42.8098 247.547C42.8638 247.835 42.9222 248.132 42.9762 248.428C43.6147 251.832 44.2397 255.636 44.7343 259.629C44.8601 260.631 44.9726 261.621 45.0715 262.596C45.1074 262.898 45.1389 263.199 45.1659 263.496C45.5796 267.637 45.7939 271.517 45.8089 275.137Z" fill="white"/>
<path d="M42.8099 247.547C42.5086 247.588 42.2029 247.628 41.8926 247.66C41.0501 247.746 40.2037 247.79 39.3567 247.79C35.7471 247.795 32.1824 246.99 28.9253 245.434C28.7364 245.672 28.5476 245.911 28.3542 246.153C31.7806 247.826 35.5439 248.693 39.3567 248.689C40.2609 248.689 41.1644 248.641 42.0635 248.545C42.3692 248.514 42.675 248.473 42.9762 248.428C45.4629 248.072 47.881 247.34 50.1478 246.257C49.9545 246.009 49.7657 245.767 49.5813 245.528C47.4359 246.531 45.1541 247.211 42.8099 247.547Z" fill="white"/>
<path d="M45.0715 262.596C44.7613 262.614 44.451 262.623 44.1408 262.623C44.0464 262.628 43.9475 262.628 43.853 262.628C39.9418 262.628 36.0886 261.682 32.6218 259.871C29.1551 258.06 26.1777 255.438 23.9434 252.228C23.7635 252.493 23.5837 252.758 23.4083 253.028C25.7371 256.276 28.8063 258.923 32.3617 260.749C35.9171 262.574 39.8563 263.527 43.853 263.527C43.9789 263.527 44.1048 263.527 44.2307 263.522C44.5455 263.518 44.8557 263.509 45.1659 263.495C49.9667 263.25 54.595 261.626 58.4975 258.819C58.3536 258.554 58.2097 258.289 58.0613 258.023C54.2686 260.779 49.7542 262.368 45.0715 262.596Z" fill="white"/>
<path d="M45.8089 275.136C45.4942 275.163 45.1794 275.181 44.8647 275.195C44.5275 275.208 44.1902 275.217 43.853 275.217C38.5974 275.211 33.4851 273.503 29.2816 270.348C25.0781 267.194 22.0094 262.762 20.5352 257.718C20.3328 258.082 20.1305 258.442 19.9371 258.806C21.5982 263.839 24.8031 268.22 29.0964 271.328C33.3897 274.435 38.5531 276.111 43.853 276.117C44.1902 276.117 44.5275 276.112 44.8602 276.094C45.1794 276.085 45.4942 276.067 45.8089 276.045C52.1663 275.547 58.0971 272.653 62.4003 267.947C62.3059 267.614 62.198 267.286 62.0901 266.953C57.9336 271.694 52.0936 274.63 45.8089 275.136Z" fill="white"/>
<path d="M272.287 302.947H0.712794C0.523749 302.947 0.342447 302.872 0.208772 302.739C0.0750972 302.605 0 302.424 0 302.235C0 302.046 0.0750972 301.864 0.208772 301.731C0.342447 301.597 0.523749 301.522 0.712794 301.522H272.287C272.476 301.522 272.658 301.597 272.791 301.731C272.925 301.864 273 302.046 273 302.235C273 302.424 272.925 302.605 272.791 302.739C272.658 302.872 272.476 302.947 272.287 302.947Z" fill="#CACACA"/>
<path d="M190.994 20.1926C184.282 10.7411 171.004 10.3006 171.004 10.3006C171.004 10.3006 158.065 8.92157 149.764 23.3164C142.028 36.7335 152.928 53.4112 152.928 53.4112C155.083 53.5404 164.398 53.5967 192.12 50.1718L193.362 43.4736L196.925 49.5819C198.407 49.4011 199.948 49.214 201.558 49.0195C200.829 41.9113 197.452 29.2869 190.994 20.1926Z" fill="#070707"/>
<path d="M206.815 152.434L205.037 91.2718L192.932 96.5678L198.773 153.097C197.514 154.073 196.604 155.43 196.178 156.966C195.753 158.501 195.835 160.133 196.413 161.618C196.99 163.103 198.032 164.362 199.383 165.207C200.734 166.052 202.322 166.437 203.91 166.306C205.498 166.176 207.001 165.535 208.195 164.481C209.39 163.426 210.212 162.014 210.538 160.454C210.865 158.895 210.679 157.271 210.008 155.826C209.337 154.381 208.217 153.191 206.815 152.434Z" fill="#FFB8B8"/>
<path d="M191.041 99.2157C198.935 99.9796 204.606 96.7183 208.442 90.1369L205.794 78.0118C205.794 74.0672 204.537 70.2252 202.205 67.0436C199.873 63.862 196.588 61.5063 192.827 60.3185L191.419 59.874L191.041 99.2157Z" fill="#E6E6E6"/>
<path d="M125.187 82.3978C125.083 82.3978 124.98 82.3871 124.878 82.3658L110.275 82.1193L110.243 81.7562L110.243 81.7405L111.455 51.6497C111.468 51.3422 111.542 51.0405 111.673 50.7617C111.803 50.4828 111.987 50.2324 112.214 50.0246C112.441 49.8169 112.706 49.6559 112.996 49.5509C113.285 49.4459 113.592 49.3988 113.899 49.4125L125.597 49.9342C125.904 49.9479 126.206 50.022 126.484 50.1522C126.763 50.2825 127.013 50.4664 127.221 50.6934C127.429 50.9204 127.59 51.186 127.694 51.4752C127.799 51.7643 127.846 52.0714 127.833 52.3787L126.682 80.96C126.666 81.3463 126.502 81.7115 126.223 81.9794C125.945 82.2473 125.573 82.3972 125.187 82.3977L125.187 82.3978Z" fill="#6C63FF"/>
<path d="M123.595 82.4191C123.558 82.4191 123.52 82.4181 123.483 82.4165L112.016 81.9052C111.365 81.8754 110.752 81.5886 110.313 81.1078C109.873 80.6269 109.642 79.9912 109.67 79.3401L110.895 51.8651C110.923 51.2447 111.197 50.6609 111.655 50.2418C112.113 49.8227 112.719 49.6024 113.339 49.6294L125.037 50.1508C125.657 50.1792 126.241 50.4526 126.66 50.9109C127.079 51.3692 127.3 51.9751 127.273 52.5956L126.048 80.0706C126.019 80.7024 125.749 81.299 125.292 81.7364C124.835 82.1738 124.227 82.4183 123.595 82.4191Z" fill="#070707"/>
<path d="M118.461 58.4803C119.386 58.4803 120.135 57.7306 120.135 56.8057C120.135 55.8809 119.386 55.1311 118.461 55.1311C117.536 55.1311 116.786 55.8809 116.786 56.8057C116.786 57.7306 117.536 58.4803 118.461 58.4803Z" fill="#6C63FF"/>
<path d="M132.382 89.8741V100.918L121.713 84.1061C122.471 82.8094 122.79 81.3022 122.621 79.8095C122.453 78.3167 121.807 76.9184 120.778 75.8231C119.75 74.7278 118.396 73.9943 116.917 73.7319C115.438 73.4695 113.913 73.6923 112.571 74.3671C111.229 75.0419 110.141 76.1325 109.47 77.4763C108.798 78.82 108.579 80.3448 108.845 81.8233C109.111 83.3018 109.848 84.6546 110.945 85.6801C112.043 86.7055 113.443 87.3485 114.936 87.5133L129.851 113.94C130.628 115.318 131.826 116.412 133.268 117.062C134.711 117.712 136.323 117.885 137.871 117.555C139.419 117.224 140.82 116.409 141.872 115.227C142.924 114.044 143.571 112.557 143.718 110.982L145.564 91.2992L132.382 89.8741Z" fill="#FFB8B8"/>
<path d="M146.989 98.4246C139.554 99.1439 134.213 96.0725 130.6 89.8741L133.094 78.4548C133.094 74.7398 134.278 71.1215 136.474 68.1251C138.67 65.1287 141.764 62.9101 145.307 61.7914L146.632 61.3727L146.989 98.4246Z" fill="#E6E6E6"/>
<path d="M164.226 296.326L156.091 295.006L157.311 263.001L169.318 264.949L164.226 296.326Z" fill="#FFB6B6"/>
<path d="M166.054 302.476L139.48 302.502L139.48 302.166C139.477 299.423 140.564 296.791 142.502 294.85C144.44 292.908 147.069 291.816 149.812 291.813H149.813L166.043 291.796L166.054 302.476Z" fill="#070707"/>
<path d="M203.101 277.689L195.743 281.402L177.923 254.788L188.783 249.309L203.101 277.689Z" fill="#FFB6B6"/>
<path d="M208.576 283.874L184.852 295.844L184.701 295.544C183.465 293.095 183.253 290.256 184.111 287.65C184.969 285.045 186.826 282.887 189.275 281.651L189.276 281.651L203.766 274.34L208.576 283.874Z" fill="#070707"/>
<path d="M170.093 50.6497C178.082 50.6497 184.559 44.1729 184.559 36.1835C184.559 28.1941 178.082 21.7173 170.093 21.7173C162.103 21.7173 155.626 28.1941 155.626 36.1835C155.626 44.1729 162.103 50.6497 170.093 50.6497Z" fill="#FFB8B8"/>
<path d="M188.027 21.601L174.908 14.7291L156.792 17.5404L153.044 34.095C171.545 36.7556 184.351 38.2817 188.652 33.7826L188.027 21.601Z" fill="#070707"/>
<path d="M146.761 126.641C146.761 126.641 135.734 149.195 147.952 182.571L181.701 268.627L197.835 259.089L181.389 222.04L194.767 176.691C197.847 166.414 198.797 155.616 197.558 144.958C196.594 136.984 194.356 128.874 189.489 124.785C178.036 115.165 146.761 126.641 146.761 126.641Z" fill="#070707"/>
<path d="M165.21 215.488L152.975 277.52L169.269 280.592L179.52 226.898L165.21 215.488Z" fill="#070707"/>
<path d="M180.762 57.7128L162.059 57.9622L145.687 61.7283L146.657 127.305C146.657 127.305 176.258 135.68 189.26 124.098L197.835 62.7213C193.023 60.0016 187.245 58.4359 180.762 57.7128Z" fill="#E4E4E4"/>
<path d="M179.106 21.377C184.224 21.377 188.373 17.2283 188.373 12.1107C188.373 6.99303 184.224 2.84436 179.106 2.84436C173.989 2.84436 169.84 6.99303 169.84 12.1107C169.84 17.2283 173.989 21.377 179.106 21.377Z" fill="#070707"/>
<path d="M169.84 9.97224C169.839 8.60182 170.143 7.24832 170.728 6.00935C171.314 4.77038 172.167 3.67681 173.227 2.80754C174.286 1.93827 175.525 1.31495 176.855 0.982529C178.184 0.650104 179.571 0.61686 180.915 0.885207C179.729 0.325588 178.437 0.0243392 177.125 0.00141466C175.814 -0.0215098 174.513 0.234416 173.307 0.752232C172.102 1.27005 171.021 2.03794 170.135 3.0051C169.248 3.97225 168.578 5.11661 168.167 6.36239C167.757 7.60818 167.615 8.92698 167.753 10.2315C167.89 11.536 168.303 12.7965 168.964 13.9295C169.625 15.0624 170.519 16.0421 171.587 16.8036C172.655 17.565 173.873 18.0909 175.159 18.3465C173.57 17.5991 172.225 16.4148 171.283 14.932C170.341 13.4491 169.841 11.7289 169.84 9.97224Z" fill="#070707"/>
</svg>
